<svg width="114" height="60" viewBox="0 0 114 60" fill="none" xmlns="http://www.w3.org/2000/svg">
<g clip-path="url(#clip0_2898_2827)">
<path d="M43.113 12.5931C45.3885 13.2031 47.7249 11.8533 48.3368 9.57529C46.0614 8.96536 43.7223 10.3152 43.113 12.5931Z" fill="#0B4332"/>
<path d="M17.3253 10.408C18.6074 8.42969 18.0458 5.78577 16.0723 4.50226C14.7902 6.48056 15.3518 9.12448 17.3253 10.408Z" fill="#0B4332"/>
<path d="M37.7119 25.5899C38.9066 21.9091 42.7238 19.7638 46.4854 20.6627C45.1582 21.8269 44.1702 23.3279 43.6245 25.0065L42.0298 29.9178C40.8059 33.6861 36.8828 35.8633 33.0417 34.9086C34.3345 34.1847 35.3093 32.9993 35.7649 31.5858L37.7093 25.5899H37.7119Z" fill="#0B4332"/>
<path d="M51.0573 45.1688L47.1024 38.3137C45.6746 35.8368 42.6124 34.8371 39.9978 35.9906C41.2216 36.6271 41.8203 37.1415 42.5647 38.433L45.6031 43.7049C46.705 45.6169 49.1448 46.272 51.0547 45.1688" fill="#0B4332"/>
<path d="M49.0071 37.8231C49.1289 40.178 51.1369 41.9866 53.4892 41.8619C53.3673 39.5071 51.3594 37.6985 49.0071 37.8231Z" fill="#0B4332"/>
<path d="M44.2734 29.8489C48.2893 30.1936 51.8231 27.2103 52.1674 23.19C48.1516 22.8453 44.6178 25.8286 44.2734 29.8489Z" fill="#0B4332"/>
<path d="M42.2205 33.4925C43.3569 33.5774 44.4694 33.8585 45.5132 34.3226L50.5171 36.5528C52.1224 37.2688 54.0005 36.5449 54.7131 34.9405L48.1224 32.0022C46.0482 31.0767 43.6112 31.6946 42.2231 33.4952" fill="#0B4332"/>
<path d="M28.0035 19.5675C24.875 17.2922 24.0167 12.9962 26.0326 9.69196C26.7293 11.3149 27.8498 12.7204 29.275 13.7573L33.4471 16.791C36.6498 19.1194 37.5054 23.5295 35.41 26.8894C35.1213 25.4335 34.2948 24.1394 33.0975 23.2696L28.0035 19.5649V19.5675Z" fill="#0B4332"/>
<path d="M50.7292 12.9113L42.9941 14.5581C40.1994 15.1522 38.3028 17.7589 38.5915 20.6044C39.5743 19.6338 40.2471 19.2254 41.7067 18.9152L47.6563 17.6502C49.8126 17.1914 51.1874 15.0699 50.7292 12.9113Z" fill="#0B4332"/>
<path d="M34.0775 14.6351C35.6457 10.9172 33.9053 6.63174 30.1914 5.06183C28.6232 8.77976 30.3636 13.0652 34.0775 14.6351Z" fill="#0B4332"/>
<path d="M36.9039 17.7166C37.3357 16.6611 37.945 15.6879 38.7079 14.8393L42.3714 10.766C43.5476 9.45861 43.4416 7.44849 42.1357 6.27106L37.3066 11.6385C35.786 13.3277 35.6192 15.839 36.9013 17.7166" fill="#0B4332"/>
<path d="M19.2828 26.9504C16.1543 29.2257 11.8073 28.7139 9.29077 25.7756C11.0471 25.6138 12.7292 24.9827 14.1543 23.9431L18.3265 20.9094C21.5291 18.581 25.9821 19.1273 28.5277 22.1611C27.0549 21.986 25.5715 22.3732 24.3741 23.2457L19.2801 26.953L19.2828 26.9504Z" fill="#0B4332"/>
<path d="M19.9797 3.25586L19.1532 11.1293C18.8538 13.9721 20.7452 16.5868 23.5373 17.1888C22.92 15.953 22.7399 15.184 22.8935 13.7016L23.5293 7.64737C23.7598 5.45427 22.1704 3.48657 19.977 3.25586" fill="#0B4332"/>
<path d="M16.4724 19.6445C13.4261 17.0032 8.81686 17.3347 6.17847 20.387C9.22481 23.0283 13.8341 22.6968 16.4724 19.6445Z" fill="#0B4332"/>
<path d="M20.2736 17.9048C19.4048 17.1676 18.6684 16.2845 18.0988 15.298L15.3598 10.5511C14.4829 9.02896 12.5386 8.50654 11.0181 9.38696L14.626 15.6427C15.7624 17.6131 18.0962 18.5466 20.2736 17.9074" fill="#0B4332"/>
<path d="M23.6006 37.5341C24.7953 41.2149 22.9648 45.198 19.3966 46.683C19.786 44.962 19.7066 43.164 19.1609 41.4854L17.5662 36.5741C16.3423 32.8058 18.239 28.7351 21.9079 27.2474C21.2854 28.5946 21.1953 30.1274 21.6536 31.5382L23.6006 37.5314V37.5341Z" fill="#0B4332"/>
<path d="M1.30664 29.5492L8.53044 32.7686C11.1397 33.9328 14.2072 32.9383 15.643 30.4668C14.2787 30.6736 13.4946 30.6073 12.1304 30.0001L6.57548 27.5232C4.56225 26.6242 2.202 27.5312 1.30664 29.5466" fill="#0B4332"/>
<path d="M7.28027 34.2855C5.79949 32.453 3.11341 32.1719 1.28296 33.6543C2.76374 35.4868 5.44982 35.7679 7.28027 34.2855Z" fill="#0B4332"/>
<path d="M15.7916 37.9531C12.34 40.0374 11.2327 44.5297 13.3148 47.9851C16.7665 45.9007 17.8737 41.4085 15.7916 37.9531Z" fill="#0B4332"/>
<path d="M15.3146 33.7949C14.3451 34.3942 13.2802 34.8239 12.165 35.0599L6.80872 36.2002C5.09218 36.5661 3.99549 38.2554 4.36106 39.9738L11.418 38.4728C13.6405 38.0008 15.2484 36.0676 15.3146 33.7949Z" fill="#0B4332"/>
<path d="M34.9912 36.6934C38.8561 36.6934 42.0746 39.6661 42.3846 43.522C40.8694 42.6177 39.1369 42.1403 37.3727 42.1403H32.2151C28.2575 42.1403 24.9754 39.0774 24.6973 35.1235C25.7834 36.1312 27.2112 36.6907 28.6946 36.6907H34.9912V36.6934Z" fill="#0B4332"/>
<path d="M20.5148 55.4527L25.8075 49.5682C27.72 47.4441 27.7253 44.2167 25.8181 42.0873C25.5929 43.4503 25.2883 44.177 24.2896 45.2881L20.2207 49.8122C18.7452 51.4511 18.8777 53.9783 20.5148 55.4554" fill="#0B4332"/>
<path d="M26.8615 51.2283C24.6629 52.0743 23.5635 54.5431 24.4086 56.7442C26.6072 55.8983 27.7039 53.4294 26.8615 51.2283Z" fill="#0B4332"/>
<path d="M32.9727 44.2592C33.8866 48.1893 37.8124 50.6317 41.7382 49.7168C40.8243 45.7867 36.8985 43.3443 32.9727 44.2592Z" fill="#0B4332"/>
<path d="M28.8773 43.4291C29.1475 44.5376 29.227 45.6832 29.1078 46.8182L28.5356 52.2705C28.3528 54.0181 29.619 55.5853 31.3647 55.7683L32.1197 48.5844C32.3581 46.3223 31.0177 44.1929 28.88 43.4291" fill="#0B4332"/>
<path d="M62.0181 42.5606V35.2653H62.9187V42.5606H62.0181Z" fill="#0B4332"/>
<path d="M64.8022 42.5607V37.241H65.6605V38.1851C66.0579 37.5194 66.7413 37.0925 67.5016 37.0925C68.5294 37.0925 69.3665 37.6812 69.3665 38.9488V42.5633H68.5082V39.1742C68.5082 38.3389 67.9837 37.8775 67.2128 37.8775C66.3996 37.8775 65.6605 38.6279 65.6605 39.6569V42.5633H64.8022V42.5607Z" fill="#0B4332"/>
<path d="M71.1226 42.5607V37.241H71.9808V38.1851C72.3782 37.5194 73.0616 37.0925 73.8219 37.0925C74.8497 37.0925 75.6868 37.6812 75.6868 38.9488V42.5633H74.8285V39.1742C74.8285 38.3389 74.304 37.8775 73.5331 37.8775C72.7199 37.8775 71.9808 38.6279 71.9808 39.6569V42.5633H71.1226V42.5607Z" fill="#0B4332"/>
<path d="M77.0247 39.9008C77.0247 38.0896 78.3518 37.0925 79.7982 37.0925C81.2445 37.0925 82.5822 38.0896 82.5822 39.9008C82.5822 41.7121 81.2551 42.7092 79.7982 42.7092C78.3412 42.7092 77.0247 41.7121 77.0247 39.9008ZM81.716 39.9008C81.716 38.6995 80.871 37.8748 79.7982 37.8748C78.7253 37.8748 77.8909 38.6995 77.8909 39.9008C77.8909 41.1021 78.7359 41.9269 79.7982 41.9269C80.8604 41.9269 81.716 41.1021 81.716 39.9008Z" fill="#0B4332"/>
<path d="M85.2311 42.5606L83.0986 37.241H84.0205L85.6602 41.5291L87.2999 37.241H88.2218L86.0893 42.5606H85.2337H85.2311Z" fill="#0B4332"/>
<path d="M88.8604 41.0809C88.8604 40.0413 89.7054 39.5163 90.6696 39.3651L92.4683 39.076V38.8294C92.4683 38.132 92.0073 37.7793 91.2153 37.7793C90.3809 37.7793 89.9517 38.1983 89.9517 38.6491C89.9517 38.6915 89.9517 38.7127 89.9729 38.8003L89.2339 39.0469C89.1809 38.9302 89.1491 38.7684 89.1491 38.6279C89.1491 37.8031 89.9835 37.0951 91.2153 37.0951C92.5769 37.0951 93.3265 37.7395 93.3265 38.8533V41.2347C93.3265 41.8446 93.4007 42.1575 93.6577 42.5633H92.7888C92.6484 42.4015 92.4789 42.0594 92.4789 41.5131C92.1901 42.2318 91.4193 42.7144 90.6378 42.7144C89.557 42.7144 88.8604 42.0382 88.8604 41.0835V41.0809ZM92.4709 39.9538V39.739L90.8418 40.0069C90.1239 40.1235 89.716 40.5001 89.716 41.0464C89.716 41.5927 90.1345 41.9586 90.7756 41.9586C91.8458 41.9586 92.4683 40.9827 92.4683 39.9538H92.4709Z" fill="#0B4332"/>
<path d="M95.3081 41.1976V37.9172H94.4075V37.241H95.3081V35.8036H96.177V37.241H97.4406V37.9172H96.177V41.1339C96.177 41.6908 96.4234 41.9481 96.9055 41.9481C97.0565 41.9481 97.2154 41.9162 97.324 41.8844L97.3982 42.6031C97.2154 42.6667 96.9902 42.7091 96.7121 42.7091C95.9518 42.7091 95.3081 42.2901 95.3081 41.1976Z" fill="#0B4332"/>
<path d="M98.7146 36.3075V35.268H99.7424V36.3075H98.7146ZM98.802 42.5607V37.241H99.6603V42.5607H98.802Z" fill="#0B4332"/>
<path d="M101.019 39.9008C101.019 38.0896 102.346 37.0925 103.793 37.0925C105.239 37.0925 106.577 38.0896 106.577 39.9008C106.577 41.7121 105.249 42.7092 103.793 42.7092C102.336 42.7092 101.019 41.7121 101.019 39.9008ZM105.71 39.9008C105.71 38.6995 104.865 37.8748 103.793 37.8748C102.72 37.8748 101.885 38.6995 101.885 39.9008C101.885 41.1021 102.73 41.9269 103.793 41.9269C104.855 41.9269 105.71 41.1021 105.71 39.9008Z" fill="#0B4332"/>
<path d="M107.991 42.5607V37.241H108.847V38.1851C109.244 37.5194 109.928 37.0925 110.688 37.0925C111.716 37.0925 112.553 37.6812 112.553 38.9488V42.5633H111.697V39.1742C111.697 38.3389 111.173 37.8775 110.402 37.8775C109.589 37.8775 108.85 38.6279 108.85 39.6569V42.5633H107.994L107.991 42.5607Z" fill="#0B4332"/>
<path d="M83.4035 25.8326V31.7118H80.6194V17.4977H83.4035V23.3557H92.0312V17.4977H94.8153V31.7118H92.0233V25.8326H83.4035Z" fill="#0B4332"/>
<path d="M73.3373 17.4977V26.7634L64.434 18.4471C63.7797 17.8372 62.9135 17.4977 62.0208 17.4977H60.0605L62.0208 19.2745V31.7092H64.8049V22.6371L74.6353 31.7092H76.1214V17.4977H73.3373Z" fill="#0B4332"/>
<path d="M111.353 27.856C110.185 28.7603 108.622 29.3172 106.749 29.3225C103.536 29.3304 101.47 27.3707 101.47 24.5862C101.47 21.8017 103.536 19.8579 106.765 19.8579C108.566 19.8579 110.185 20.3909 111.348 21.3191L112.699 19.1233C111.133 17.9565 109.075 17.2856 106.691 17.2856C101.841 17.2856 98.6353 20.2955 98.6353 24.5862C98.6353 28.8769 101.854 31.9266 106.707 31.9266C109.284 31.9266 111.072 31.3273 112.717 30.065L111.358 27.856H111.353Z" fill="#0B4332"/>
</g>
<defs>
<clipPath id="clip0_2898_2827">
<rect width="114" height="60" fill="white"/>
</clipPath>
</defs>
</svg>
