<svg width="54" height="54" viewBox="0 0 54 54" fill="none" xmlns="http://www.w3.org/2000/svg">
<path d="M41.8302 9.33727C44.1057 9.9472 46.4421 8.5974 47.054 6.31943C44.7785 5.7095 42.4395 7.05931 41.8302 9.33727Z" fill="#0B4332"/>
<path d="M16.0424 7.15213C17.3245 5.17383 16.7629 2.52991 14.7894 1.2464C13.5073 3.2247 14.0689 5.86862 16.0424 7.15213Z" fill="#0B4332"/>
<path d="M36.429 22.3341C37.6237 18.6533 41.4409 16.5079 45.2025 17.4069C43.8753 18.5711 42.8873 20.072 42.3416 21.7507L40.7469 26.6619C39.523 30.4303 35.5999 32.6074 31.7589 31.6528C33.0516 30.9288 34.0264 29.7434 34.482 28.33L36.4264 22.3341H36.429Z" fill="#0B4332"/>
<path d="M49.7744 41.9129L45.8194 35.0578C44.3916 32.581 41.3294 31.5812 38.7148 32.7348C39.9387 33.3712 40.5374 33.8857 41.2817 35.1771L44.3201 40.4491C45.4221 42.3611 47.8618 43.0161 49.7717 41.9129" fill="#0B4332"/>
<path d="M47.7241 34.5673C47.846 36.9221 49.8539 38.7307 52.2062 38.6061C52.0844 36.2512 50.0764 34.4426 47.7241 34.5673Z" fill="#0B4332"/>
<path d="M42.9906 26.593C47.0065 26.9378 50.5402 23.9544 50.8846 19.9342C46.8687 19.5894 43.335 22.5728 42.9906 26.593Z" fill="#0B4332"/>
<path d="M40.9376 30.2367C42.074 30.3215 43.1866 30.6026 44.2303 31.0667L49.2343 33.297C50.8395 34.013 52.7177 33.289 53.4303 31.6846L46.8396 28.7463C44.7654 27.8208 42.3283 28.4387 40.9403 30.2393" fill="#0B4332"/>
<path d="M26.7204 16.3117C23.592 14.0364 22.7337 9.74034 24.7496 6.4361C25.4463 8.05905 26.5668 9.46454 27.992 10.5014L32.1641 13.5352C35.3667 15.8635 36.2224 20.2736 34.127 23.6335C33.8383 22.1776 33.0118 20.8835 31.8145 20.0137L26.7204 16.309V16.3117Z" fill="#0B4332"/>
<path d="M49.4462 9.65546L41.7112 11.3023C38.9165 11.8963 37.0198 14.5031 37.3085 17.3486C38.2913 16.378 38.9642 15.9696 40.4237 15.6593L46.3734 14.3944C48.5297 13.9356 49.9045 11.8141 49.4462 9.65546Z" fill="#0B4332"/>
<path d="M32.7944 11.3792C34.3627 7.66131 32.6223 3.37588 28.9084 1.80597C27.3402 5.5239 29.0806 9.80934 32.7944 11.3792Z" fill="#0B4332"/>
<path d="M35.621 14.4607C36.0528 13.4053 36.6621 12.432 37.425 11.5834L41.0885 7.51013C42.2647 6.20275 42.1587 4.19263 40.8528 3.0152L36.0237 8.3826C34.5031 10.0718 34.3363 12.5832 35.6184 14.4607" fill="#0B4332"/>
<path d="M17.9999 23.6945C14.8714 25.9698 10.5244 25.458 8.00787 22.5197C9.76415 22.3579 11.4463 21.7268 12.8714 20.6873L17.0436 17.6535C20.2462 15.3252 24.6992 15.8715 27.2448 18.9052C25.772 18.7302 24.2886 19.1174 23.0912 19.9898L17.9972 23.6971L17.9999 23.6945Z" fill="#0B4332"/>
<path d="M18.6966 0L17.8702 7.87343C17.5708 10.7162 19.4622 13.331 22.2542 13.933C21.637 12.6972 21.4569 11.9281 21.6105 10.4457L22.2463 4.39151C22.4767 2.19841 20.8874 0.230713 18.694 0" fill="#0B4332"/>
<path d="M15.1894 16.3886C12.1431 13.7474 7.53384 14.0788 4.89545 17.1312C7.94179 19.7724 12.551 19.4409 15.1894 16.3886Z" fill="#0B4332"/>
<path d="M18.9907 14.6489C18.1219 13.9117 17.3855 13.0286 16.8159 12.0421L14.0769 7.29528C13.2 5.7731 11.2557 5.25068 9.73517 6.13111L13.3431 12.3869C14.4795 14.3572 16.8133 15.2907 18.9907 14.6516" fill="#0B4332"/>
<path d="M22.3177 34.2782C23.5124 37.959 21.6819 41.9421 18.1137 43.4272C18.5031 41.7061 18.4237 39.9081 17.878 38.2295L16.2833 33.3182C15.0594 29.5499 16.9561 25.4793 20.625 23.9916C20.0025 25.3387 19.9124 26.8715 20.3707 28.2823L22.3177 34.2756V34.2782Z" fill="#0B4332"/>
<path d="M0.0237427 26.2934L7.24754 29.5128C9.85679 30.6769 12.9243 29.6825 14.3601 27.2109C12.9958 27.4178 12.2117 27.3515 10.8475 26.7442L5.29258 24.2674C3.27935 23.3684 0.919101 24.2753 0.0237427 26.2907" fill="#0B4332"/>
<path d="M5.99731 31.0296C4.51653 29.1972 1.83045 28.9161 0 30.3985C1.48079 32.2309 4.16686 32.512 5.99731 31.0296Z" fill="#0B4332"/>
<path d="M14.5086 34.6972C11.0569 36.7816 9.94964 41.2739 12.0317 44.7293C15.4834 42.6449 16.5907 38.1526 14.5086 34.6972Z" fill="#0B4332"/>
<path d="M14.0317 30.5391C13.0621 31.1384 11.9972 31.568 10.882 31.804L5.52576 32.9443C3.80922 33.3103 2.71254 34.9995 3.0781 36.7179L10.135 35.217C12.3575 34.7449 13.9654 32.8117 14.0317 30.5391Z" fill="#0B4332"/>
<path d="M33.7083 33.4375C37.5732 33.4375 40.7917 36.4103 41.1016 40.2661C39.5864 39.3618 37.854 38.8845 36.0897 38.8845H30.9321C26.9745 38.8845 23.6925 35.8216 23.4143 31.8676C24.5004 32.8753 25.9282 33.4349 27.4116 33.4349H33.7083V33.4375Z" fill="#0B4332"/>
<path d="M19.2317 52.1969L24.5244 46.3124C26.4369 44.1882 26.4422 40.9609 24.535 38.8314C24.3098 40.1945 24.0052 40.9211 23.0065 42.0322L18.9377 46.5563C17.4622 48.1952 17.5946 50.7224 19.2317 52.1995" fill="#0B4332"/>
<path d="M25.5787 47.9724C23.38 48.8184 22.2807 51.2873 23.1257 53.4883C25.3244 52.6424 26.4211 50.1735 25.5787 47.9724Z" fill="#0B4332"/>
<path d="M31.6898 41.0034C32.6037 44.9334 36.5295 47.3758 40.4553 46.4609C39.5414 42.5308 35.6156 40.0885 31.6898 41.0034Z" fill="#0B4332"/>
<path d="M27.5944 40.1733C27.8646 41.2818 27.9441 42.4274 27.8249 43.5624L27.2527 49.0146C27.0699 50.7622 28.3362 52.3295 30.0818 52.5125L30.8368 45.3285C31.0752 43.0665 29.7348 40.937 27.5971 40.1733" fill="#0B4332"/>
</svg>
