<svg width="61" height="32" viewBox="0 0 61 32" fill="none" xmlns="http://www.w3.org/2000/svg">
<path d="M23.103 6.72819C24.3151 7.05307 25.5596 6.3341 25.8855 5.12074C24.6735 4.79586 23.4276 5.51483 23.103 6.72819Z" fill="white"/>
<path d="M9.36738 5.56427C10.0503 4.51053 9.75117 3.10224 8.69998 2.41858C8.01707 3.47232 8.3162 4.88061 9.36738 5.56427Z" fill="white"/>
<path d="M20.2263 13.651C20.8627 11.6904 22.8959 10.5477 24.8995 11.0265C24.1926 11.6466 23.6663 12.4461 23.3757 13.3402L22.5262 15.9562C21.8744 17.9634 19.7847 19.1231 17.7388 18.6146C18.4273 18.229 18.9466 17.5976 19.1893 16.8447L20.2249 13.651H20.2263Z" fill="white"/>
<path d="M27.3347 24.0796L25.2281 20.4283C24.4676 19.109 22.8365 18.5764 21.4438 19.1909C22.0957 19.5299 22.4146 19.8039 22.8111 20.4918L24.4295 23.2999C25.0165 24.3184 26.316 24.6672 27.3333 24.0796" fill="white"/>
<path d="M26.2424 20.167C26.3073 21.4213 27.3769 22.3846 28.6298 22.3182C28.5649 21.0639 27.4954 20.1006 26.2424 20.167Z" fill="white"/>
<path d="M23.7212 15.9195C25.8602 16.1031 27.7425 14.514 27.9259 12.3727C25.7869 12.189 23.9046 13.7781 23.7212 15.9195Z" fill="white"/>
<path d="M22.6277 17.8603C23.233 17.9055 23.8256 18.0552 24.3815 18.3024L27.0469 19.4904C27.902 19.8718 28.9023 19.4861 29.2819 18.6316L25.7714 17.0665C24.6666 16.5735 23.3685 16.9026 22.6291 17.8617" fill="white"/>
<path d="M15.0549 10.4431C13.3885 9.23119 12.9313 6.9429 14.0051 5.18289C14.3762 6.04736 14.973 6.796 15.7321 7.34829L17.9544 8.96422C19.6603 10.2044 20.1161 12.5534 19 14.3431C18.8462 13.5676 18.4059 12.8783 17.7682 12.415L15.0549 10.4417V10.4431Z" fill="white"/>
<path d="M27.1598 6.89767L23.0397 7.77485C21.5511 8.09126 20.5408 9.47977 20.6946 10.9954C21.2181 10.4784 21.5765 10.2609 22.354 10.0956L25.523 9.42186C26.6716 9.17749 27.4039 8.04747 27.1598 6.89767Z" fill="white"/>
<path d="M18.2902 7.81586C19.1255 5.8355 18.1984 3.55286 16.2202 2.71664C15.3849 4.697 16.312 6.97964 18.2902 7.81586Z" fill="white"/>
<path d="M19.7958 9.4572C20.0258 8.89502 20.3503 8.37662 20.7567 7.92462L22.7081 5.75498C23.3345 5.0586 23.2781 3.98791 22.5825 3.36075L20.0102 6.2197C19.2003 7.11948 19.1114 8.45714 19.7944 9.4572" fill="white"/>
<path d="M10.4099 14.3756C8.74351 15.5876 6.42808 15.3149 5.08765 13.7499C6.02313 13.6637 6.91911 13.3275 7.67822 12.7738L9.90052 11.1579C11.6064 9.91768 13.9783 10.2087 15.3342 11.8246C14.5497 11.7314 13.7596 11.9376 13.1218 12.4023L10.4085 14.377L10.4099 14.3756Z" fill="white"/>
<path d="M10.781 1.7547L10.3408 5.94849C10.1813 7.46271 11.1888 8.85546 12.676 9.1761C12.3472 8.51787 12.2513 8.10824 12.3331 7.31863L12.6717 4.09384C12.7945 2.92568 11.9479 1.87759 10.7796 1.7547" fill="white"/>
<path d="M8.91303 10.4841C7.29039 9.07722 4.83527 9.25378 3.42993 10.8796C5.05257 12.2865 7.50768 12.1099 8.91303 10.4841Z" fill="white"/>
<path d="M10.9378 9.55747C10.475 9.16479 10.0827 8.69441 9.77938 8.16896L8.32042 5.64054C7.85338 4.82975 6.81772 4.55148 6.00781 5.02044L7.92958 8.35258C8.53489 9.40209 9.77797 9.8993 10.9378 9.55888" fill="white"/>
<path d="M12.7099 20.013C13.3462 21.9736 12.3712 24.0952 10.4706 24.8862C10.678 23.9695 10.6357 23.0118 10.345 22.1177L9.49563 19.5017C8.84376 17.4945 9.85402 15.3262 11.8082 14.5338C11.4767 15.2514 11.4287 16.0678 11.6728 16.8193L12.7099 20.0116V20.013Z" fill="white"/>
<path d="M0.834961 15.7599L4.68272 17.4747C6.07254 18.0948 7.70647 17.5651 8.47122 16.2486C7.74456 16.3588 7.32691 16.3235 6.60025 16L3.64141 14.6807C2.56906 14.2019 1.31187 14.685 0.834961 15.7585" fill="white"/>
<path d="M4.01674 18.2827C3.228 17.3066 1.79726 17.1569 0.822266 17.9465C1.61101 18.9225 3.04175 19.0723 4.01674 18.2827Z" fill="white"/>
<path d="M8.55019 20.2362C6.71167 21.3464 6.12188 23.7392 7.23091 25.5798C9.06943 24.4695 9.65922 22.0767 8.55019 20.2362Z" fill="white"/>
<path d="M8.29618 18.0213C7.77976 18.3406 7.21255 18.5694 6.61852 18.6951L3.76551 19.3025C2.85119 19.4974 2.26704 20.3972 2.46175 21.3125L6.22062 20.513C7.40444 20.2616 8.26091 19.2319 8.29618 18.0213Z" fill="white"/>
<path d="M18.777 19.5652C20.8357 19.5652 22.55 21.1487 22.7151 23.2025C21.908 22.7208 20.9852 22.4665 20.0455 22.4665H17.2983C15.1903 22.4665 13.4421 20.8351 13.2939 18.729C13.8724 19.2658 14.633 19.5638 15.4231 19.5638H18.777V19.5652Z" fill="white"/>
<path d="M11.066 29.5574L13.8851 26.423C14.9039 25.2916 14.9067 23.5726 13.8908 22.4383C13.7708 23.1643 13.6086 23.5514 13.0766 24.1432L10.9094 26.553C10.1234 27.4259 10.194 28.7721 11.066 29.5588" fill="white"/>
<path d="M14.4468 27.3073C13.2757 27.7578 12.6901 29.0729 13.1402 30.2453C14.3113 29.7947 14.8955 28.4796 14.4468 27.3073Z" fill="white"/>
<path d="M17.7019 23.5952C18.1887 25.6885 20.2798 26.9895 22.3709 26.5021C21.8841 24.4088 19.793 23.1078 17.7019 23.5952Z" fill="white"/>
<path d="M15.5205 23.153C15.6644 23.7435 15.7067 24.3537 15.6432 24.9582L15.3384 27.8624C15.2411 28.7932 15.9155 29.628 16.8454 29.7255L17.2475 25.899C17.3745 24.6941 16.6605 23.5598 15.5219 23.153" fill="white"/>
<path d="M33.1729 22.6904V18.8046H33.6526V22.6904H33.1729Z" fill="white"/>
<path d="M34.6558 22.6904V19.8569H35.1129V20.3598C35.3246 20.0052 35.6886 19.7778 36.0936 19.7778C36.641 19.7778 37.0869 20.0914 37.0869 20.7666V22.6918H36.6297V20.8866C36.6297 20.4417 36.3504 20.1959 35.9398 20.1959C35.5066 20.1959 35.1129 20.5957 35.1129 21.1437V22.6918H34.6558V22.6904Z" fill="white"/>
<path d="M38.0223 22.6904V19.8569H38.4795V20.3598C38.6911 20.0052 39.0552 19.7778 39.4601 19.7778C40.0076 19.7778 40.4535 20.0914 40.4535 20.7666V22.6918H39.9963V20.8866C39.9963 20.4417 39.7169 20.1959 39.3063 20.1959C38.8732 20.1959 38.4795 20.5957 38.4795 21.1437V22.6918H38.0223V22.6904Z" fill="white"/>
<path d="M41.166 21.2737C41.166 20.3089 41.8729 19.7778 42.6433 19.7778C43.4137 19.7778 44.1263 20.3089 44.1263 21.2737C44.1263 22.2384 43.4194 22.7695 42.6433 22.7695C41.8673 22.7695 41.166 22.2384 41.166 21.2737ZM43.6649 21.2737C43.6649 20.6338 43.2148 20.1945 42.6433 20.1945C42.0719 20.1945 41.6274 20.6338 41.6274 21.2737C41.6274 21.9135 42.0775 22.3528 42.6433 22.3528C43.2091 22.3528 43.6649 21.9135 43.6649 21.2737Z" fill="white"/>
<path d="M45.5373 22.6904L44.4015 19.8569H44.8925L45.7659 22.141L46.6393 19.8569H47.1303L45.9945 22.6904H45.5387H45.5373Z" fill="white"/>
<path d="M47.4703 21.9022C47.4703 21.3485 47.9204 21.0688 48.434 20.9883L49.3921 20.8344V20.703C49.3921 20.3315 49.1466 20.1436 48.7247 20.1436C48.2802 20.1436 48.0517 20.3668 48.0517 20.6069C48.0517 20.6295 48.0517 20.6408 48.0629 20.6875L47.6693 20.8188C47.6411 20.7567 47.6241 20.6705 47.6241 20.5956C47.6241 20.1563 48.0686 19.7792 48.7247 19.7792C49.4499 19.7792 49.8493 20.1224 49.8493 20.7157V21.9842C49.8493 22.309 49.8888 22.4757 50.0256 22.6918H49.5628C49.488 22.6057 49.3977 22.4235 49.3977 22.1325C49.2439 22.5153 48.8333 22.7723 48.4171 22.7723C47.8414 22.7723 47.4703 22.4122 47.4703 21.9036V21.9022ZM49.3935 21.3019V21.1875L48.5258 21.3302C48.1434 21.3923 47.9261 21.5929 47.9261 21.8839C47.9261 22.1748 48.149 22.3698 48.4905 22.3698C49.0605 22.3698 49.3921 21.85 49.3921 21.3019H49.3935Z" fill="white"/>
<path d="M50.9048 21.9644V20.2171H50.425V19.8569H50.9048V19.0913H51.3676V19.8569H52.0406V20.2171H51.3676V21.9305C51.3676 22.2271 51.4988 22.3641 51.7556 22.3641C51.836 22.3641 51.9207 22.3472 51.9785 22.3302L52.0181 22.713C51.9207 22.7469 51.8008 22.7695 51.6526 22.7695C51.2477 22.7695 50.9048 22.5463 50.9048 21.9644Z" fill="white"/>
<path d="M52.7192 19.3597V18.806H53.2667V19.3597H52.7192ZM52.7658 22.6904V19.8569H53.223V22.6904H52.7658Z" fill="white"/>
<path d="M53.9468 21.2737C53.9468 20.3089 54.6537 19.7778 55.4241 19.7778C56.1945 19.7778 56.907 20.3089 56.907 21.2737C56.907 22.2384 56.2001 22.7695 55.4241 22.7695C54.648 22.7695 53.9468 22.2384 53.9468 21.2737ZM56.4456 21.2737C56.4456 20.6338 55.9955 20.1945 55.4241 20.1945C54.8526 20.1945 54.4082 20.6338 54.4082 21.2737C54.4082 21.9135 54.8583 22.3528 55.4241 22.3528C55.9899 22.3528 56.4456 21.9135 56.4456 21.2737Z" fill="white"/>
<path d="M57.6605 22.6904V19.8569H58.1163V20.3598C58.3279 20.0052 58.692 19.7778 59.0969 19.7778C59.6444 19.7778 60.0902 20.0914 60.0902 20.7666V22.6918H59.6345V20.8866C59.6345 20.4417 59.3551 20.1959 58.9445 20.1959C58.5113 20.1959 58.1177 20.5957 58.1177 21.1437V22.6918H57.6619L57.6605 22.6904Z" fill="white"/>
<path d="M44.5638 13.7802V16.9118H43.0808V9.34067H44.5638V12.4609H49.1593V9.34067H50.6423V16.9118H49.1551V13.7802H44.5638Z" fill="white"/>
<path d="M39.202 9.34067V14.276L34.4597 9.84635C34.1112 9.52147 33.6498 9.34067 33.1743 9.34067H32.1301L33.1743 10.2871V16.9104H34.6572V12.0781L39.8934 16.9104H40.6849V9.34067H39.202Z" fill="white"/>
<path d="M59.4511 14.858C58.8289 15.3397 57.9964 15.6363 56.9989 15.6391C55.2873 15.6433 54.1868 14.5995 54.1868 13.1163C54.1868 11.6332 55.2873 10.5978 57.0073 10.5978C57.9668 10.5978 58.8289 10.8817 59.4483 11.3761L60.1679 10.2065C59.334 9.58503 58.2377 9.22766 56.9678 9.22766C54.3843 9.22766 52.677 10.8309 52.677 13.1163C52.677 15.4018 54.3914 17.0262 56.9763 17.0262C58.3492 17.0262 59.3016 16.707 60.1778 16.0346L59.454 14.858H59.4511Z" fill="white"/>
</svg>
