<svg width="48" height="32" viewBox="0 0 48 32" fill="none" xmlns="http://www.w3.org/2000/svg">
<path d="M33.9102 11.7871L30.8096 14.7412C32.4728 15.0213 34.1025 15.8947 34.1025 18.168V18.2031C34.1024 20.5109 32.4213 22.2078 29.6885 22.208C27.4806 22.208 25.9559 21.3338 24.9053 20.0918L26.7617 18.3262C27.603 19.2715 28.4794 19.7959 29.7227 19.7959C30.7386 19.7959 31.4569 19.2188 31.457 18.3096V18.2744C31.4569 17.2779 30.5621 16.7178 29.0557 16.7178H27.9346L27.5137 15.0049L31.4473 11.0547L29.8721 12.0674H25.623V9.75879H33.9102V11.7871ZM41.333 9.54883C45.1167 9.54905 47.832 12.3644 47.832 15.8438V15.8779C47.832 19.3573 45.0806 22.2079 41.2969 22.208C37.5131 22.208 34.7981 19.3924 34.7979 15.9131V15.8779C34.7979 12.3985 37.5491 9.54883 41.333 9.54883ZM4.8418 9.58398C7.3822 9.58398 9.06422 11.0702 9.06445 13.3613V13.3965C9.06445 15.4426 8.01179 16.456 5.83984 18.1348L3.15918 20.2002L2.63965 20.6006L4.51074 19.6738H9.18652V21.999H0.111328V19.8662L4.19531 16.5264C5.71837 15.2678 6.31445 14.6202 6.31445 13.5889C6.31433 12.5578 5.6143 11.9982 4.66797 11.998C3.72139 11.998 3.0727 12.522 2.16211 13.6406L0.269531 12.1201C1.47808 10.4762 2.65216 9.58411 4.8418 9.58398ZM41.2969 12.0312C39.1249 12.0312 37.6182 13.745 37.6182 15.8438V15.8779C37.6182 17.9767 39.1598 19.7246 41.333 19.7246C43.5059 19.7244 45.0125 18.0115 45.0127 15.9131H45.0107V15.8779C45.0107 13.7793 43.4687 12.0314 41.2969 12.0312ZM38.8271 7.79102H38.2881V7.25391H38.8271V7.79102ZM39.9014 7.79102H39.3633V7.25391H39.9014V7.79102ZM15.9316 1.56152C17.4691 1.56152 18.501 2.76456 18.501 4.1543V4.16797C18.501 5.55764 17.4553 6.77432 15.918 6.77441C14.3805 6.77441 13.3486 5.57138 13.3486 4.18164V4.16797C13.3486 2.77703 14.3956 1.56069 15.9316 1.56055V1.56152ZM46.4434 5.41113C46.4434 5.62041 46.4269 5.80933 46.3936 5.97754C46.3602 6.14431 46.3034 6.28817 46.2227 6.40625C46.1417 6.5257 46.0346 6.61577 45.9023 6.67871V6.68066C45.7702 6.74347 45.6084 6.77438 45.416 6.77441C45.2736 6.77441 45.127 6.75488 44.9795 6.71387L45.1201 6.19727C45.1828 6.21517 45.2317 6.22657 45.2676 6.23047C45.3023 6.23432 45.3467 6.2373 45.3955 6.2373C45.4979 6.23727 45.5811 6.22277 45.6465 6.19336C45.7107 6.16382 45.7622 6.11598 45.8008 6.05176C45.8392 5.98634 45.8664 5.90195 45.8818 5.79688C45.8972 5.69155 45.9053 5.56269 45.9053 5.41113V1.65332H46.4434V5.41113ZM44.0547 5.39551C44.0547 5.81551 43.9359 6.15024 43.6982 6.39941C43.4607 6.64703 43.0793 6.77143 42.5557 6.77148C42.3952 6.77148 42.2344 6.75334 42.0752 6.71484C41.9159 6.6776 41.7319 6.61973 41.5264 6.54395L41.6943 6.02734C41.8639 6.10312 42.0161 6.15765 42.1484 6.18848C42.2805 6.22051 42.4293 6.2363 42.5947 6.23633C42.8862 6.23633 43.1126 6.17537 43.2744 6.05469C43.4349 5.93397 43.5156 5.73241 43.5156 5.45117V4.91797L43.335 5.29688H43.1924C42.8918 5.29687 42.6063 5.26272 42.3379 5.19336C42.0695 5.124 41.8331 5.01521 41.6289 4.87012L41.6309 4.87207C41.4267 4.72696 41.2646 4.54045 41.1465 4.31445C41.0271 4.08846 40.9678 3.81616 40.9678 3.49902C40.9678 3.23572 41.022 2.98973 41.1299 2.76367C41.2365 2.5378 41.3879 2.3427 41.583 2.17969C41.7782 2.01662 42.0117 1.8877 42.2852 1.79395C42.5586 1.70021 42.8621 1.65335 43.1934 1.65332H44.0547V5.39551ZM8.92969 1.57715C9.66536 1.57723 10.1918 1.78545 10.7041 2.19629L10.373 2.63574C9.90423 2.25427 9.43394 2.08887 8.91504 2.08887C8.25883 2.08891 7.83993 2.44806 7.83984 2.90137V2.91602C7.83998 3.39101 8.10021 3.65698 9.21094 3.89453L9.20898 3.89648C10.3352 4.14177 10.8543 4.55185 10.8545 5.32227V5.33691C10.8544 6.20124 10.1339 6.7627 9.13086 6.7627C8.33079 6.76268 7.67453 6.49665 7.06836 5.95605L7.4209 5.53809C7.9474 6.01322 8.47437 6.25088 9.15234 6.25098C9.83052 6.25098 10.2783 5.8916 10.2783 5.39453V5.38086C10.2783 4.91205 10.0258 4.64536 8.96484 4.42188C7.80405 4.16885 7.26953 3.79514 7.26953 2.9668V2.95312C7.26953 2.16064 7.97023 1.57715 8.92969 1.57715ZM0.945312 2.39844L2.43164 5.98926L2.57422 6.33301L2.51855 5.78027L4.23438 1.64746H4.84863L2.67676 6.72363H2.17188L0 1.64746H0.634766L0.945312 2.39844ZM29.792 5.35645C29.792 5.50777 29.8 5.63601 29.8154 5.74121C29.8321 5.84653 29.8592 5.93156 29.8965 5.99707C29.9337 6.06238 29.9858 6.10917 30.0498 6.13867C30.114 6.16819 30.1991 6.18162 30.3018 6.18164H39.5508V1.65332H40.0889V6.71777H30.2832C30.0906 6.71777 29.9282 6.68693 29.7959 6.62402C29.6637 6.56114 29.5575 6.46959 29.4766 6.35156C29.465 6.33487 29.4527 6.31516 29.4424 6.2959V6.69824H28.3242C26.8369 6.69824 25.8389 5.53424 25.8389 4.18945V4.17578C25.8389 2.83106 26.8507 1.65344 28.3379 1.65332H29.792V5.35645ZM6.19336 6.6875H5.62305V1.64746H6.19336V6.6875ZM12.3662 6.6875H11.7959V1.64746H12.3662V6.6875ZM23.3828 5.98438L23.1494 5.36523V1.64746H23.7041V6.6875H23.249L19.6719 2.1543L19.9883 2.88867V6.6875H19.4336V1.64746H19.9678L23.3828 5.98438ZM15.918 2.08691C14.7646 2.08691 13.9414 3.00988 13.9414 4.1543V4.16797C13.9414 5.31228 14.7771 6.24887 15.9316 6.24902C17.0863 6.24902 17.9082 5.32606 17.9082 4.18164V4.16797C17.9082 3.02361 17.0713 2.08701 15.918 2.08691ZM28.3252 2.16211C27.2092 2.16215 26.4133 3.05288 26.4131 4.16113H26.4111V4.17578C26.4112 5.28281 27.2206 6.18934 28.3379 6.18945H29.3877C29.3518 6.10864 29.323 6.02032 29.3037 5.92285C29.2703 5.75599 29.2539 5.56692 29.2539 5.35645V2.32617L29.584 2.16211H28.3252ZM42.9531 2.19922C42.771 2.20054 42.5951 2.23076 42.4258 2.29102C42.2512 2.35393 42.0941 2.4414 41.958 2.55566C41.8219 2.66998 41.7111 2.8082 41.6289 2.96875H41.6309C41.5475 3.13051 41.5059 3.29747 41.5059 3.49902C41.5059 3.70037 41.5445 3.87864 41.6201 4.03516C41.6959 4.19186 41.8017 4.32375 41.9365 4.43164C42.0712 4.53931 42.2264 4.62158 42.4033 4.67676C42.5806 4.73327 42.77 4.76172 42.9717 4.76172H43.5156V2.35059L43.8232 2.19922H42.9531ZM28.7158 1.11621H28.1777V0.579102H28.7158V1.11621ZM29.792 1.11621H29.2539V0.579102H29.792V1.11621ZM43.8936 0.374023H43.5234C43.4403 0.374065 43.3829 0.389272 43.3584 0.419922C43.3289 0.45717 43.3145 0.510051 43.3145 0.578125V0.702148H44.0527L44.0547 0.701172V1.11523H42.876V0.676758C42.876 0.441775 42.9319 0.266743 43.041 0.160156C43.1489 0.0537618 43.3094 2.47703e-05 43.5146 0H43.8936V0.374023Z" fill="white"/>
<path d="M16.5176 8.74432L17.138 9.33901L16.542 9.9581L15.9216 9.36341L16.5176 8.74432Z" fill="white"/>
<path d="M17.938 9.36341L18.5596 9.9581L19.1556 9.33901L18.534 8.74432L17.938 9.36341Z" fill="white"/>
<path d="M17.0635 10.1443L17.5477 10.608L18.0114 10.1251L17.5284 9.66269L17.0635 10.1443Z" fill="white"/>
<path d="M18.8372 10.4102L19.3201 10.8726L19.7851 10.391L19.3008 9.92728L18.8372 10.4102Z" fill="white"/>
<path d="M16.2734 10.8829L16.7564 11.3465L17.2201 10.8636L16.7371 10.3999L16.2734 10.8829Z" fill="white"/>
<path d="M17.8958 10.9394L18.3787 11.4018L18.8437 10.9201L18.3594 10.4565L17.8958 10.9394Z" fill="white"/>
<path d="M17.2612 11.4942L17.6016 11.8205L17.9278 11.4801L17.5875 11.1539L17.2612 11.4942Z" fill="white"/>
<path d="M18.5444 11.7499L18.8848 12.0761L19.211 11.7357L18.8707 11.4108L18.5444 11.7499Z" fill="white"/>
<path d="M22.4018 8.97305L21.3469 9.16647L21.5401 10.2201L22.595 10.0267L22.4018 8.97305Z" fill="white"/>
<path d="M20.8174 9.45158L19.9709 9.60663L20.1258 10.4518L20.9722 10.2968L20.8174 9.45158Z" fill="white"/>
<path d="M22.4526 10.6322L21.6062 10.7874L21.7612 11.6326L22.6076 11.4774L22.4526 10.6322Z" fill="white"/>
<path d="M21.0985 10.7903L20.439 10.9111L20.5595 11.5693L21.219 11.4485L21.0985 10.7903Z" fill="white"/>
<path d="M22.3802 12.0403L21.7207 12.1611L21.8413 12.8194L22.5008 12.6986L22.3802 12.0403Z" fill="white"/>
<path d="M20.1109 11.0576L19.4514 11.1784L19.572 11.8366L20.2315 11.7158L20.1109 11.0576Z" fill="white"/>
<path d="M21.3062 11.9198L20.6467 12.0406L20.7673 12.6988L21.4268 12.578L21.3062 11.9198Z" fill="white"/>
<path d="M20.2715 12.0324L19.8079 12.1174L19.8926 12.5798L20.3563 12.4948L20.2715 12.0324Z" fill="white"/>
<path d="M21.1619 12.9909L20.6982 13.0757L20.7828 13.5381L21.2465 13.4533L21.1619 12.9909Z" fill="white"/>
<path d="M24.4848 12.6181L24.0237 13.5853L24.9934 14.0451L25.4532 13.078L24.4848 12.6181Z" fill="white"/>
<path d="M23.1091 12.1711L22.7405 12.9469L23.5176 13.3156L23.8875 12.5398L23.1091 12.1711Z" fill="white"/>
<path d="M23.7461 14.0824L23.3762 14.8582L24.1533 15.2268L24.5232 14.451L23.7461 14.0824Z" fill="white"/>
<path d="M22.7276 13.5005L22.4399 14.1042L23.0449 14.3919L23.3326 13.7869L22.7276 13.5005Z" fill="white"/>
<path d="M23.0348 15.2627L22.7471 15.8664L23.352 16.1541L23.6397 15.5504L23.0348 15.2627Z" fill="white"/>
<path d="M21.7696 13.1409L21.4819 13.7446L22.0869 14.0323L22.3746 13.4273L21.7696 13.1409Z" fill="white"/>
<path d="M22.2345 14.5383L21.9468 15.142L22.5517 15.4297L22.8394 14.8248L22.2345 14.5383Z" fill="white"/>
<path d="M21.5063 14.1119L21.3047 14.537L21.7298 14.7387L21.9328 14.3148L21.5063 14.1119Z" fill="white"/>
<path d="M21.6686 15.4084L21.4666 15.8329L21.8922 16.0355L22.0942 15.611L21.6686 15.4084Z" fill="white"/>
<path d="M25.0076 17.2484L24.0662 17.7635L24.5825 18.7024L25.5227 18.1874L25.0076 17.2484Z" fill="white"/>
<path d="M24.1534 16.0835L23.3994 16.4958L23.813 17.2497L24.5682 16.8361L24.1534 16.0835Z" fill="white"/>
<path d="M23.5497 18.0037L22.7944 18.4173L23.2093 19.1699L23.9633 18.7576L23.5497 18.0037Z" fill="white"/>
<path d="M23.0643 16.9376L22.4773 17.2587L22.7997 17.8457L23.3867 17.5233L23.0643 16.9376Z" fill="white"/>
<path d="M22.2806 18.5457L21.6924 18.8681L22.0148 19.4538L22.603 19.1327L22.2806 18.5457Z" fill="white"/>
<path d="M22.4992 16.0861L21.9109 16.4084L22.2333 16.9941L22.8215 16.673L22.4992 16.0861Z" fill="white"/>
<path d="M22.056 17.4912L21.469 17.8136L21.7914 18.3993L22.3784 18.0782L22.056 17.4912Z" fill="white"/>
<path d="M21.7156 16.7206L21.302 16.9479L21.5293 17.3602L21.9429 17.1341L21.7156 16.7206Z" fill="white"/>
<path d="M21.0874 17.8662L20.6738 18.0923L20.8999 18.5046L21.3135 18.2785L21.0874 17.8662Z" fill="white"/>
<path d="M21.6534 21.1785L21.522 22.2416L22.5864 22.3732L22.7178 21.3101L21.6534 21.1785Z" fill="white"/>
<path d="M21.852 19.7572L21.7463 20.61L22.6004 20.7158L22.706 19.863L21.852 19.7572Z" fill="white"/>
<path d="M20.235 20.963L20.1294 21.8157L20.9834 21.9215L21.089 21.0687L20.235 20.963Z" fill="white"/>
<path d="M20.6595 19.8413L20.5774 20.5055L21.2428 20.5878L21.3249 19.9236L20.6595 19.8413Z" fill="white"/>
<path d="M19.0799 20.6885L18.9978 21.3527L19.6632 21.435L19.7453 20.7708L19.0799 20.6885Z" fill="white"/>
<path d="M20.696 18.8171L20.6138 19.4812L21.2792 19.5636L21.3614 18.8995L20.696 18.8171Z" fill="white"/>
<path d="M19.5139 19.6987L19.4316 20.3628L20.097 20.4452L20.1793 19.7811L19.5139 19.6987Z" fill="white"/>
<path d="M19.8868 18.9006L19.8291 19.3671L20.2969 19.425L20.3546 18.9584L19.8868 18.9006Z" fill="white"/>
<path d="M18.7061 19.4627L18.6484 19.9293L19.1163 19.9871L19.174 19.5206L18.7061 19.4627Z" fill="white"/>
<path d="M18.4775 23.2634L17.6915 22.5338L16.9619 23.3199L17.748 24.0481L18.4775 23.2634Z" fill="white"/>
<path d="M18.3325 8.26394L17.5464 7.53439L16.8169 8.31917L17.603 9.04872L18.3325 8.26394Z" fill="white"/>
<path d="M19.3162 22.0869L18.6855 21.5024L18.0999 22.1331L18.7318 22.7162L19.3162 22.0869Z" fill="white"/>
<path d="M17.2998 22.1202L16.6692 21.5358L16.0835 22.1665L16.7141 22.7496L17.2998 22.1202Z" fill="white"/>
<path d="M18.1602 21.3252L17.6696 20.8705L17.2136 21.3599L17.7043 21.8146L18.1602 21.3252Z" fill="white"/>
<path d="M16.3839 21.0889L15.8932 20.6342L15.4373 21.1248L15.9279 21.5795L16.3839 21.0889Z" fill="white"/>
<path d="M18.7909 20.5212L18.3002 20.0652L17.8442 20.5558L18.3349 21.0105L18.7909 20.5212Z" fill="white"/>
<path d="M17.3166 20.5456L16.8246 20.0896L16.3687 20.5802L16.8606 21.0349L17.3166 20.5456Z" fill="white"/>
<path d="M17.9407 19.9791L17.5952 19.6593L17.2754 20.0035L17.6209 20.3246L17.9407 19.9791Z" fill="white"/>
<path d="M16.6536 19.7441L16.3081 19.4243L15.9883 19.7698L16.3338 20.0896L16.6536 19.7441Z" fill="white"/>
<path d="M13.6837 21.323L12.6321 21.5337L12.8425 22.584L13.8941 22.3733L13.6837 21.323Z" fill="white"/>
<path d="M15.0962 21.0658L14.2524 21.2349L14.4213 22.0774L15.265 21.9084L15.0962 21.0658Z" fill="white"/>
<path d="M13.4387 19.9167L12.595 20.0859L12.7639 20.9284L13.6077 20.7592L13.4387 19.9167Z" fill="white"/>
<path d="M14.6447 19.9591L13.9873 20.0908L14.1188 20.747L14.7762 20.6152L14.6447 19.9591Z" fill="white"/>
<path d="M15.6266 19.674L14.9692 19.8057L15.1007 20.4618L15.7581 20.3301L15.6266 19.674Z" fill="white"/>
<path d="M14.4152 18.834L13.7578 18.9657L13.8893 19.6219L14.5467 19.4901L14.4152 18.834Z" fill="white"/>
<path d="M15.2933 18.9345L14.8311 19.027L14.9233 19.488L15.3855 19.3955L15.2933 18.9345Z" fill="white"/>
<path d="M14.385 17.9956L13.9229 18.0883L14.0153 18.5492L14.4775 18.4565L14.385 17.9956Z" fill="white"/>
<path d="M10.7003 18.9747L11.1448 18.0011L10.1686 17.5567L9.7229 18.5316L10.7003 18.9747Z" fill="white"/>
<path d="M12.0826 19.3998L12.4396 18.6176L11.6561 18.2618L11.2991 19.0428L12.0826 19.3998Z" fill="white"/>
<path d="M11.4146 17.4989L11.7717 16.718L10.9882 16.3609L10.6311 17.1431L11.4146 17.4989Z" fill="white"/>
<path d="M12.111 17.1787L11.8333 17.7876L12.4433 18.0658L12.721 17.457L12.111 17.1787Z" fill="white"/>
<path d="M13.259 19.5861L13.5365 18.9773L12.9264 18.6998L12.6489 19.3086L13.259 19.5861Z" fill="white"/>
<path d="M11.7741 15.4186L11.4963 16.0275L12.1063 16.3057L12.3841 15.6969L11.7741 15.4186Z" fill="white"/>
<path d="M13.0746 17.5202L12.7969 18.1291L13.4069 18.4073L13.6846 17.7985L13.0746 17.5202Z" fill="white"/>
<path d="M12.5868 16.1307L12.3088 16.7394L12.9187 17.0179L13.1967 16.4092L12.5868 16.1307Z" fill="white"/>
<path d="M13.6534 17.4321L13.8486 17.0031L13.4196 16.8079L13.2244 17.2369L13.6534 17.4321Z" fill="white"/>
<path d="M13.4708 16.1387L13.666 15.7097L13.237 15.5158L13.0405 15.9435L13.4708 16.1387Z" fill="white"/>
<path d="M10.1006 14.3534L11.0331 13.8242L10.5013 12.893L9.56885 13.4234L10.1006 14.3534Z" fill="white"/>
<path d="M10.974 15.5055L11.7216 15.0791L11.2951 14.3328L10.5476 14.7593L10.974 15.5055Z" fill="white"/>
<path d="M11.5456 13.5737L12.2944 13.1486L11.8667 12.4023L11.1191 12.8275L11.5456 13.5737Z" fill="white"/>
<path d="M12.049 14.6334L12.6308 14.3007L12.2981 13.7202L11.7163 14.0515L12.049 14.6334Z" fill="white"/>
<path d="M12.8068 13.0111L13.3886 12.6798L13.056 12.0992L12.4741 12.4306L12.8068 13.0111Z" fill="white"/>
<path d="M12.6283 15.4747L13.2114 15.1433L12.8787 14.5615L12.2969 14.8928L12.6283 15.4747Z" fill="white"/>
<path d="M13.047 14.0618L13.6288 13.7304L13.2974 13.1499L12.7156 13.4813L13.047 14.0618Z" fill="white"/>
<path d="M13.4003 14.8273L13.81 14.5936L13.5762 14.1851L13.1665 14.4176L13.4003 14.8273Z" fill="white"/>
<path d="M14.0104 13.6714L14.4201 13.4389L14.1863 13.0291L13.7766 13.2629L14.0104 13.6714Z" fill="white"/>
<path d="M12.4383 9.19154L12.3245 10.2567L13.3909 10.3707L13.5047 9.30551L12.4383 9.19154Z" fill="white"/>
<path d="M12.4494 10.8455L12.3579 11.6999L13.2136 11.7915L13.305 10.9371L12.4494 10.8455Z" fill="white"/>
<path d="M14.0456 9.61375L13.9541 10.4681L14.8098 10.5597L14.9012 9.70534L14.0456 9.61375Z" fill="white"/>
<path d="M13.8117 10.9541L13.7405 11.6195L14.4071 11.6908L14.4784 11.0255L13.8117 10.9541Z" fill="white"/>
<path d="M15.3754 10.0811L15.3044 10.7466L15.9711 10.8177L16.0421 10.1523L15.3754 10.0811Z" fill="white"/>
<path d="M13.788 11.9746L13.7168 12.64L14.3835 12.7113L14.4547 12.046L13.788 11.9746Z" fill="white"/>
<path d="M14.9565 11.0736L14.8853 11.739L15.5519 11.8104L15.6231 11.145L14.9565 11.0736Z" fill="white"/>
<path d="M14.7739 12.1003L14.7239 12.5677L15.1926 12.6179L15.2426 12.1505L14.7739 12.1003Z" fill="white"/>
<path d="M15.9445 11.5183L15.8948 11.9858L16.3635 12.0357L16.4132 11.5682L15.9445 11.5183Z" fill="white"/>
<path d="M20.9579 16.4495C20.8782 16.4046 20.7331 16.3288 20.5327 16.2659C20.2437 16.1734 19.8404 16.104 19.3626 16.1798C19.2021 16.2055 19.0325 16.2479 18.8566 16.3108C18.8399 16.3172 18.8232 16.3224 18.8065 16.3288C18.7166 16.3622 18.6279 16.4033 18.538 16.4482C18.4622 16.4868 18.3852 16.5292 18.3094 16.5754C18.136 16.6794 17.9652 16.7976 17.7995 16.926C17.6107 15.7842 17.7032 14.7246 17.7468 14.2044C17.7468 14.2018 17.7507 14.2005 17.7532 14.2018C18.1578 14.4561 18.0448 15.1664 17.9588 15.3706C17.9575 15.3745 17.9626 15.377 17.9665 15.3745C18.47 14.7798 18.2246 14.1222 18.1206 13.9565C18.118 13.9526 18.1232 13.9488 18.127 13.9513C18.2002 14.0104 18.2593 14.0734 18.3094 14.1376C18.4648 14.3367 18.5226 14.5512 18.538 14.7413C18.5457 14.8414 18.5432 14.9339 18.538 15.0135C18.5367 15.0354 18.5355 15.0547 18.5329 15.0739C18.5329 15.0765 18.5355 15.0778 18.538 15.0765H18.5406C18.6767 14.8093 18.7422 14.406 18.538 14.0143C18.4828 13.9077 18.4083 13.8023 18.3094 13.7009C18.2811 13.6713 18.2503 13.6431 18.2182 13.6135C18.2156 13.611 18.2182 13.6058 18.2221 13.6071C18.2529 13.6148 18.2811 13.6238 18.3094 13.6328C18.3955 13.6623 18.4712 13.7034 18.538 13.7535C18.6909 13.8666 18.7949 14.0207 18.8566 14.1825C18.9079 14.3161 18.9311 14.4535 18.9311 14.5756C18.9311 14.5807 18.9375 14.5807 18.9388 14.5756C19.0338 14.2275 18.976 13.9642 18.8566 13.7728C18.7718 13.6354 18.6549 13.5352 18.538 13.4645C18.4584 13.417 18.3788 13.3836 18.3094 13.3631C18.2683 13.3502 18.2323 13.3425 18.2002 13.3387C18.1951 13.3387 18.1964 13.331 18.2002 13.331C18.2375 13.3271 18.2734 13.3258 18.3081 13.3245C18.3929 13.3233 18.4687 13.331 18.5367 13.3425C18.6716 13.3682 18.7769 13.4144 18.8553 13.4684C18.9837 13.5545 19.0479 13.6559 19.0698 13.697C19.0723 13.7009 19.0775 13.6983 19.0775 13.6945C19.0595 13.5108 18.9747 13.3669 18.8566 13.2642C18.7654 13.1845 18.6536 13.1293 18.538 13.0959C18.4622 13.0754 18.3852 13.0638 18.3094 13.0625C18.2066 13.0625 18.1077 13.0779 18.0243 13.1139C18.0204 13.1152 18.0178 13.1113 18.0191 13.1075C18.0936 13.0009 18.1989 12.9366 18.3094 12.902C18.3865 12.8788 18.4648 12.8699 18.538 12.875C18.6087 12.8788 18.6729 12.8943 18.7256 12.9187C18.7294 12.9199 18.732 12.9161 18.7294 12.9122C18.6716 12.8467 18.6061 12.7954 18.538 12.7568C18.4648 12.7157 18.3878 12.6913 18.3094 12.6823C18.1052 12.6592 17.8971 12.7466 17.7584 12.9559C17.7571 12.9585 17.7532 12.9585 17.752 12.9559C17.725 12.9084 17.6993 12.8557 17.6762 12.8005C17.621 12.6721 17.576 12.5282 17.5516 12.3843C17.5516 12.3792 17.5452 12.3792 17.5452 12.3843C17.5208 12.5282 17.4745 12.6733 17.4193 12.8018C17.3949 12.857 17.3705 12.9084 17.3435 12.9546C17.3422 12.9572 17.3384 12.9572 17.3371 12.9546C17.0956 12.5886 16.6422 12.5963 16.3661 12.9122C16.3635 12.9148 16.3661 12.9199 16.3699 12.9187C16.5536 12.8313 16.9017 12.857 17.0764 13.1075C17.0789 13.1113 17.0764 13.1152 17.0712 13.1139C16.8028 13.0009 16.3866 13.0741 16.1644 13.3387C16.0848 13.4324 16.0308 13.5519 16.0167 13.6945C16.0167 13.6983 16.0219 13.7009 16.0244 13.697C16.0411 13.6649 16.0848 13.5956 16.1644 13.5249C16.2941 13.4106 16.5202 13.295 16.894 13.3297C16.8991 13.3297 16.8991 13.3374 16.894 13.3374C16.7026 13.3605 16.3083 13.5313 16.1631 13.9218C16.0989 14.0939 16.0822 14.3097 16.1541 14.5743C16.1541 14.5781 16.1619 14.5781 16.1619 14.5743C16.1619 14.5679 16.1619 14.5627 16.1619 14.5563C16.1657 14.2018 16.3686 13.7266 16.8709 13.6058C16.8747 13.6058 16.8773 13.6097 16.8747 13.6123C16.3134 14.1055 16.3686 14.7143 16.5523 15.0739C16.5549 15.0778 16.56 15.0765 16.56 15.0713C16.5356 14.7991 16.5164 14.3148 16.9659 13.9488C16.9698 13.9462 16.9749 13.9488 16.9723 13.9539C16.8683 14.1209 16.623 14.7772 17.1265 15.3719C17.129 15.3758 17.1354 15.3719 17.1342 15.368C17.0494 15.1651 16.9364 14.4535 17.3397 14.1992C17.3422 14.1979 17.3461 14.1992 17.3461 14.2018C17.3898 14.722 17.4822 15.7816 17.2934 16.9235C16.9685 16.6743 16.6255 16.456 16.2864 16.3275C16.2441 16.3121 16.203 16.298 16.1631 16.2838C15.8125 16.1682 15.4914 16.1361 15.2114 16.149C14.7618 16.1682 14.4176 16.3031 14.2288 16.3969C14.1903 16.4161 14.1582 16.4341 14.1338 16.4482C14.1235 16.4547 14.1312 16.4688 14.1415 16.4649C14.171 16.456 14.1993 16.447 14.2288 16.4393C14.5743 16.3416 14.9018 16.3159 15.2114 16.3429C15.5492 16.3725 15.8664 16.4649 16.1631 16.5985C16.5793 16.786 16.9556 17.0532 17.296 17.3358C16.8156 17.7545 16.4097 18.1617 16.1631 18.3042C16.1503 18.3106 16.1387 18.3184 16.1272 18.3248C16.0681 18.2439 15.9653 18.1976 15.8536 18.222C15.756 18.2439 15.6763 18.3222 15.6545 18.4185C15.6352 18.5046 15.6571 18.5984 15.7059 18.6472C15.8369 18.7782 15.9885 18.7872 16.1631 18.714C16.4958 18.574 16.9094 18.1347 17.4167 17.6697C17.4591 17.6312 17.5015 17.5914 17.5452 17.5528C17.5888 17.5914 17.6312 17.6299 17.6736 17.6684C17.9035 17.8791 18.1142 18.0846 18.3068 18.2593C18.3865 18.3312 18.4622 18.398 18.5355 18.4571C18.6485 18.5496 18.7551 18.6253 18.854 18.678C19.0479 18.7807 19.2162 18.7936 19.3601 18.6664C19.3678 18.66 19.3755 18.6536 19.3832 18.6459C19.4166 18.6125 19.4551 18.5033 19.4346 18.4173C19.423 18.3672 19.396 18.3222 19.3588 18.2875C19.3254 18.2554 19.2817 18.231 19.2355 18.2207C19.1237 18.1963 19.021 18.2426 18.9619 18.3235C18.9285 18.3068 18.8925 18.2837 18.8527 18.2567C18.7615 18.1938 18.6549 18.1051 18.5342 17.9998C18.4622 17.9369 18.3865 17.8675 18.3055 17.7943C18.1488 17.6517 17.9767 17.495 17.7943 17.3345C17.9562 17.1996 18.127 17.0686 18.3055 16.9479C18.38 16.8978 18.4558 16.849 18.5342 16.8027C18.6382 16.7411 18.7435 16.6846 18.8527 16.6319C19.0158 16.5536 19.1841 16.4881 19.3588 16.438C19.721 16.3339 20.1102 16.2993 20.5289 16.366C20.665 16.3879 20.8037 16.42 20.9463 16.4637C20.9579 16.4675 20.9643 16.4521 20.9553 16.447" fill="white"/>
<path d="M7.1123 29.7289C7.49468 29.729 7.73112 29.8355 7.95703 30.0267L7.71191 30.3187C7.54243 30.1749 7.37652 30.0834 7.09668 30.0834C6.69092 30.0834 6.38397 30.4379 6.38379 30.8578V30.8646C6.38381 31.3154 6.68145 31.6477 7.13086 31.6478C7.33742 31.6478 7.5263 31.5828 7.66113 31.4828V31.0717H7.09863V30.7357H8.03516V31.6586C7.81938 31.8435 7.50722 32.0004 7.11816 32.0004C6.42992 32.0003 5.97775 31.5109 5.97754 30.8715V30.8646C5.97754 30.2494 6.44955 29.7289 7.1123 29.7289ZM12.0732 29.7289C12.7487 29.7289 13.2205 30.2402 13.2207 30.8578V30.8646C13.2207 31.4823 12.7428 32.0002 12.0674 32.0004C11.3919 32.0004 10.9202 31.4891 10.9199 30.8715V30.8646C10.9199 30.2468 11.3967 29.7289 12.0723 29.7289H12.0732ZM18.4258 29.7289C19.1012 29.7289 19.5731 30.2402 19.5732 30.8578V30.8646C19.5732 31.4824 19.0955 32.0003 18.4199 32.0004C17.7445 32.0004 17.2727 31.4891 17.2725 30.8715V30.8646C17.2725 30.2469 17.7493 29.729 18.4248 29.7289H18.4258ZM27.7334 31.016C27.7334 31.4231 27.9463 31.6428 28.2891 31.6429C28.632 31.6429 28.8428 31.4362 28.8428 31.0316L28.8418 31.0326V29.7689H29.2285V31.014C29.2283 31.6687 28.8545 31.9973 28.2832 31.9974C27.7117 31.9974 27.3467 31.6674 27.3467 31.0316V29.7679H27.7334V31.016ZM23.7461 29.7357C24.0659 29.7357 24.3205 29.8336 24.5439 30.0121L24.3369 30.3031C24.1393 30.1556 23.9417 30.0776 23.7402 30.0775C23.5142 30.0775 23.3818 30.1944 23.3818 30.3383V30.3441C23.3818 30.5124 23.482 30.5887 23.9033 30.6888H23.9014C24.3662 30.8018 24.6082 30.9672 24.6084 31.3304V31.3373C24.6084 31.747 24.2856 31.9926 23.8232 31.9926C23.4868 31.9925 23.1708 31.8769 22.9062 31.642L23.1387 31.3656C23.3493 31.5467 23.5604 31.6508 23.834 31.6508C24.0727 31.6507 24.2227 31.5413 24.2227 31.3744V31.3685C24.2227 31.2118 24.135 31.1264 23.7266 31.0326C23.2594 30.9196 22.9951 30.7818 22.9951 30.3773V30.3715C22.9951 29.9965 23.3095 29.7358 23.7461 29.7357ZM2.9873 31.9623H2.60059V29.7679H2.9873V31.9623ZM9.38867 29.7679C10.0796 29.7679 10.5574 30.2402 10.5576 30.8578V30.8646C10.5576 31.4837 10.0797 31.9623 9.38867 31.9623H8.56934V29.7679H9.38867ZM27.1201 31.9623H26.7119L26.4883 31.432H25.4482L25.2217 31.9623H24.8262L25.7939 29.7523H26.1533L27.1201 31.9623ZM30.6143 29.7679C31.3051 29.768 31.783 30.2402 31.7832 30.8578V30.8646C31.7832 31.4836 31.3052 31.9622 30.6143 31.9623H29.7949V29.7679H30.6143ZM32.6592 31.9623H32.2725V29.7679H32.6592V31.9623ZM36.2949 31.9623H35.8867L35.6631 31.432H34.623L34.3965 31.9623H34.001L34.9688 29.7523H35.3281L36.2949 31.9623ZM41.1025 31.9623H40.6943L40.4707 31.432H39.4307L39.2041 31.9623H38.8086L39.7754 29.7523H40.1357L41.1025 31.9623ZM42.4541 29.7679C42.7056 29.768 42.9035 29.8356 43.0293 29.9613C43.1269 30.0589 43.1768 30.1779 43.1768 30.3256V30.3314C43.1768 30.5947 43.0254 30.7359 42.8623 30.8207H42.8613C43.1194 30.908 43.2978 31.056 43.2979 31.3539V31.3607C43.2977 31.7535 42.9749 31.9623 42.4844 31.9623H41.4678V29.7679H42.4541ZM44.1631 31.9623H43.7764V29.7679H44.1631V31.9623ZM45.8584 29.7523L46.8262 31.9623H46.418L46.1943 31.432H45.1533L44.9277 31.9623H44.5322L45.499 29.7523H45.8584ZM0.688477 30.8715L1.73438 29.7679H2.20801L1.29492 30.7113L2.24902 31.9613H1.78125L1.03027 30.975L0.688477 31.3256V31.9613H0.301758V29.7679H0.688477V30.8715ZM5.11816 31.2845V29.7679H5.49902V31.9613H5.17578L3.96387 30.4008V31.9613H3.58398V29.7679H3.94043L5.11816 31.2845ZM14.7803 30.8051L15.4492 29.7679H15.8604V31.9613H15.4736V30.3881L14.7803 31.4232H14.7666L14.0781 30.3949V31.9613H13.6982V29.7679H14.1104L14.7803 30.8051ZM21.6875 30.1185H20.4375V30.7172H21.5459V31.0687H20.4375V31.9613H20.0508V29.7679H21.6875V30.1185ZM37.6387 29.766C37.9148 29.766 38.1322 29.8483 38.2734 29.9857C38.3903 30.1052 38.4551 30.269 38.4551 30.4603V30.4662L38.457 30.4652C38.457 30.826 38.2397 31.0416 37.9316 31.1302L38.5244 31.9613H38.0693L37.5283 31.1957H37.0449V31.9613H36.6582V29.766H37.6387ZM12.0654 30.0834C11.6291 30.0836 11.3254 30.4317 11.3252 30.8578V30.8646C11.3252 31.291 11.6356 31.6459 12.0723 31.6459C12.5088 31.6459 12.8133 31.2977 12.8135 30.8715V30.8646C12.8135 30.4382 12.5021 30.0834 12.0654 30.0834ZM18.4189 30.0834C17.9824 30.0834 17.6779 30.4315 17.6777 30.8578V30.8646C17.6778 31.291 17.9882 31.6458 18.4248 31.6459C18.8614 31.6459 19.1658 31.2977 19.166 30.8715V30.8646C19.166 30.4383 18.8554 30.0836 18.4189 30.0834ZM41.8477 31.6195H42.4883C42.7514 31.6195 42.9119 31.5172 42.9121 31.3197V31.3129C42.9121 31.1279 42.7644 31.017 42.46 31.017H41.8477V31.6195ZM8.95605 31.6107H9.38867C9.84961 31.6107 10.1521 31.3002 10.1523 30.8715V30.8646C10.1523 30.4356 9.85106 30.1185 9.38867 30.1185H8.95605V31.6107ZM30.1816 31.6107H30.6143C31.0751 31.6106 31.3767 31.3002 31.377 30.8715V30.8646C31.377 30.4357 31.0766 30.1186 30.6143 30.1185H30.1816V31.6107ZM25.5898 31.0902H26.3477L25.9668 30.2123L25.5898 31.0902ZM34.7637 31.0902H35.5215L35.1416 30.2123L34.7637 31.0902ZM39.5713 31.0902H40.3291L39.9492 30.2123L39.5713 31.0902ZM45.2949 31.0902H46.0527L45.6729 30.2123L45.2949 31.0902ZM37.0449 30.8558H37.6113C37.8873 30.8558 38.0633 30.7106 38.0635 30.4886V30.4818C38.0635 30.2468 37.8938 30.1185 37.6074 30.1185H37.0449V30.8558ZM41.8477 30.6927H42.376C42.6234 30.6926 42.7898 30.5949 42.79 30.3949V30.3881C42.79 30.2159 42.6512 30.1097 42.4033 30.1097H41.8477V30.6927ZM28.9531 27.7474H24.9932V27.8129C24.9932 27.9336 24.9831 28.0417 24.9639 28.1381L24.96 28.139C24.9407 28.234 24.9085 28.3161 24.8623 28.3842C24.8161 28.4522 24.7555 28.5035 24.6797 28.5394C24.6039 28.5753 24.5117 28.5941 24.4014 28.5941C24.3193 28.5941 24.236 28.582 24.1514 28.559L24.2314 28.264C24.2673 28.2743 24.2959 28.28 24.3164 28.2826C24.3369 28.2852 24.3615 28.2865 24.3896 28.2865C24.4485 28.2865 24.496 28.2777 24.5332 28.2611C24.5704 28.2444 24.6002 28.2173 24.6221 28.1801C24.6439 28.1428 24.66 28.0939 24.6689 28.0336C24.6779 27.9733 24.6816 27.9001 24.6816 27.8129V25.6615H24.9893V27.4388H26.1367L25.5947 26.1517C25.6743 26.0799 25.7595 26.0137 25.8506 25.9496C25.9418 25.8854 26.0369 25.8298 26.1357 25.7836C26.2345 25.7374 26.3335 25.7011 26.4336 25.6742C26.5335 25.6486 26.636 25.6342 26.7334 25.6342C26.8309 25.6342 26.9302 25.6473 27.0303 25.6742C27.1304 25.7011 27.2296 25.7381 27.3271 25.7855C27.4247 25.833 27.5199 25.8886 27.6123 25.9515C27.7048 26.0145 27.7918 26.0818 27.874 26.1537L27.3359 27.4408H28.6455V24.9906H28.9531V27.7474ZM16.2744 27.7465H15.3857V27.7426C15.3036 27.7387 15.2279 27.7306 15.165 27.7152C15.0829 27.6947 15.0112 27.6675 14.9521 27.6342C14.8931 27.6008 14.8449 27.5633 14.8076 27.5209C14.7705 27.4786 14.7395 27.4365 14.7139 27.3929C14.6445 27.5264 14.5456 27.6237 14.416 27.6879C14.2864 27.752 14.1224 27.7845 13.9453 27.7845C13.7681 27.7845 13.6148 27.7494 13.4863 27.6801C13.358 27.612 13.2561 27.5162 13.1816 27.3929C13.1097 27.4994 13.0162 27.5856 12.8994 27.6498C12.7825 27.714 12.65 27.7465 12.501 27.7465H7.71777V27.8041C7.71772 28.0441 7.64977 28.2358 7.51367 28.3783C7.37755 28.5206 7.16057 28.5911 6.86035 28.5912C6.76787 28.5912 6.67615 28.5798 6.58496 28.558C6.49381 28.5361 6.38957 28.504 6.27148 28.4603L6.36816 28.1644C6.46578 28.2081 6.55215 28.2392 6.62793 28.2572C6.70353 28.2751 6.78805 28.2845 6.88281 28.2845C7.04979 28.2845 7.17998 28.2494 7.27246 28.1801C7.36487 28.1107 7.41113 27.9961 7.41113 27.8344V27.7465H7.22656C7.05445 27.7465 6.89046 27.7267 6.73633 27.6869C6.58243 27.6484 6.4478 27.5867 6.33105 27.5033C6.21425 27.4211 6.12177 27.3145 6.05371 27.1849C5.98564 27.0565 5.95215 26.9005 5.95215 26.7181C5.95219 26.5667 5.98332 26.4269 6.04492 26.2972C6.10654 26.1689 6.19207 26.057 6.30371 25.9633C6.41546 25.8695 6.54936 25.7965 6.70605 25.7426C6.86275 25.6886 7.03648 25.6615 7.22656 25.6615H7.71777V27.4388H8.78418L8.24219 26.1517C8.32176 26.0799 8.40693 26.0138 8.49805 25.9496C8.58924 25.8854 8.6843 25.8298 8.7832 25.7836C8.88203 25.7374 8.98095 25.7011 9.08105 25.6742C9.18117 25.6485 9.28429 25.6342 9.38184 25.6342C9.47919 25.6342 9.57782 25.6473 9.67773 25.6742C9.77781 25.7011 9.8771 25.7381 9.97461 25.7855C10.0722 25.833 10.1673 25.8887 10.2598 25.9515C10.3522 26.0145 10.4393 26.0818 10.5215 26.1537L9.9834 27.4408H11.5996V25.8539H11.9082V27.4408H12.5039C12.5731 27.4408 12.6386 27.4317 12.7002 27.4125C12.7618 27.3932 12.8174 27.3621 12.8662 27.3197C12.915 27.2773 12.9532 27.2231 12.9814 27.1576C13.0097 27.0921 13.0244 27.0124 13.0244 26.9174V25.8539H13.332V26.9408C13.3346 27.0152 13.352 27.0843 13.3828 27.1498C13.4136 27.2153 13.4558 27.2719 13.5098 27.3207C13.5637 27.3695 13.6277 27.4086 13.7021 27.4369C13.7766 27.4651 13.8594 27.4789 13.9492 27.4789C14.1415 27.4788 14.2849 27.426 14.3799 27.3197C14.4748 27.2132 14.5224 27.0719 14.5225 26.8949V25.8539H14.8311V26.8461C14.831 26.9575 14.8226 27.0537 14.8047 27.1332C14.8638 27.2346 14.9441 27.3123 15.0469 27.3636C15.1496 27.415 15.291 27.4408 15.4707 27.4408H15.9746L15.9668 27.4388V24.9896H16.2744V27.7465ZM2.80762 28.4291H2.49219V28.1136H2.80762V28.4291ZM3.3457 28.4291H3.03027V28.1136H3.3457V28.4291ZM22.1035 28.4291H21.7871V28.1136H22.1035V28.4291ZM22.6426 28.4291H22.3271V28.1136H22.6426V28.4291ZM23.7686 28.4252H23.4521V28.1097H23.7686V28.4252ZM45.2402 27.7523H43.6738C43.5711 27.8615 43.4492 27.9475 43.3066 28.0092C43.1641 28.0708 43.0085 28.1019 42.8467 28.1019C42.6849 28.1019 42.5358 28.0711 42.3984 28.0082C42.2611 27.9452 42.1431 27.8602 42.043 27.7523H40.6875C40.5848 27.8615 40.4628 27.9475 40.3203 28.0092C40.1778 28.0708 40.0222 28.1019 39.8604 28.1019C39.6986 28.1019 39.5495 28.0711 39.4121 28.0082C39.2747 27.9452 39.1568 27.8602 39.0566 27.7523H32.9492C32.781 27.7523 32.619 27.7319 32.4648 27.6908C32.3108 27.651 32.1761 27.588 32.0605 27.5033C31.945 27.4186 31.8525 27.3119 31.7832 27.181C31.7139 27.0501 31.6787 26.8946 31.6787 26.7123C31.6787 26.5633 31.7082 26.4256 31.7686 26.2972C31.8289 26.1688 31.914 26.058 32.0244 25.9642C32.1348 25.8719 32.2683 25.7991 32.4248 25.7465C32.5802 25.6938 32.7556 25.6674 32.9482 25.6674H33.4336V27.4457H36.2812V26.975C36.2812 26.8943 36.2732 26.8199 36.2578 26.7533C36.2424 26.6865 36.2126 26.6269 36.1689 26.5756C36.1253 26.5243 36.0685 26.4849 35.998 26.4554C35.9275 26.4247 35.8444 26.4106 35.7471 26.4105H34.1768C34.1383 26.3669 34.11 26.3206 34.0869 26.2719C34.0638 26.223 34.0484 26.1648 34.0381 26.098L34.6289 24.9945H34.9648L34.3848 26.1019H35.748C35.9019 26.1019 36.0288 26.1238 36.1289 26.1674C36.2291 26.211 36.3198 26.2777 36.3994 26.3676C36.4662 26.442 36.5151 26.5324 36.5459 26.639C36.5766 26.7454 36.5918 26.8571 36.5918 26.975V27.4457H37.5732V24.9965H37.8809V27.4457H38.8584C38.8302 27.3765 38.8087 27.3045 38.792 27.2289C38.7753 27.1531 38.7666 27.0738 38.7666 26.9916C38.7667 26.8351 38.7942 26.69 38.8506 26.5541C38.9071 26.4179 38.9851 26.3001 39.084 26.1986C39.1828 26.0972 39.2981 26.0174 39.4316 25.9584C39.5652 25.8993 39.703 25.8695 39.8623 25.8695C40.0214 25.8696 40.1693 25.8977 40.3066 25.9554C40.444 26.0132 40.562 26.0917 40.6621 26.1918C40.7623 26.2907 40.8406 26.4089 40.8984 26.5463C40.955 26.6824 40.9844 26.8278 40.9844 26.9896C40.9844 27.1514 40.9519 27.3015 40.8877 27.4427H41.8428C41.8145 27.3734 41.7921 27.3017 41.7754 27.226C41.7587 27.1502 41.75 27.0718 41.75 26.9896C41.75 26.8329 41.7784 26.6873 41.835 26.5511C41.8915 26.4152 41.9686 26.2971 42.0674 26.1957C42.1662 26.0943 42.2816 26.0145 42.415 25.9554C42.5486 25.8964 42.6875 25.8666 42.8467 25.8666C43.0058 25.8666 43.1537 25.8948 43.291 25.9525C43.4284 26.0103 43.5473 26.0887 43.6475 26.1888C43.7476 26.2877 43.826 26.406 43.8838 26.5433C43.9403 26.6794 43.9697 26.825 43.9697 26.9867C43.9697 27.1485 43.9373 27.2995 43.873 27.4408H44.9316V24.9906H45.2402V27.7523ZM39.8594 26.1722C39.7438 26.1722 39.6383 26.194 39.542 26.2377C39.4457 26.2813 39.3633 26.3393 39.2939 26.4125C39.2247 26.4856 39.1697 26.5706 39.1299 26.6693C39.0914 26.7681 39.0703 26.8737 39.0703 26.9828C39.0703 27.092 39.0901 27.1967 39.1299 27.2943C39.1697 27.3918 39.2253 27.4761 39.2959 27.5492C39.3665 27.6224 39.4496 27.6806 39.5459 27.723C39.6422 27.7641 39.7438 27.7855 39.8594 27.7855C39.975 27.7855 40.0818 27.7667 40.1807 27.7269C40.2794 27.6871 40.3653 27.6318 40.4385 27.5599C40.5117 27.488 40.5699 27.403 40.6123 27.3041V27.3051C40.6545 27.2064 40.6748 27.1026 40.6748 26.9847C40.6748 26.8666 40.6544 26.7584 40.6133 26.6595C40.5722 26.5606 40.5156 26.4756 40.4424 26.4037C40.3693 26.3319 40.2833 26.2758 40.1846 26.2347C40.0857 26.1936 39.975 26.1722 39.8594 26.1722ZM42.8447 26.1722C42.7293 26.1722 42.6236 26.1941 42.5273 26.2377C42.4311 26.2813 42.3486 26.3394 42.2793 26.4125C42.21 26.4856 42.156 26.5706 42.1162 26.6693C42.0764 26.7681 42.0557 26.8737 42.0557 26.9828C42.0557 27.092 42.0764 27.1967 42.1162 27.2943C42.156 27.3918 42.2117 27.4761 42.2822 27.5492C42.3529 27.6224 42.4359 27.6807 42.5322 27.723C42.6285 27.7641 42.7301 27.7855 42.8457 27.7855C42.9613 27.7855 43.0681 27.7667 43.167 27.7269C43.2658 27.6871 43.3517 27.6318 43.4248 27.5599C43.498 27.488 43.5562 27.403 43.5986 27.3041L43.5957 27.3051C43.6379 27.2064 43.6601 27.1026 43.6602 26.9847C43.6602 26.8667 43.6397 26.7584 43.5986 26.6595C43.5575 26.5607 43.5009 26.4756 43.4277 26.4037C43.3545 26.3318 43.2678 26.2758 43.1689 26.2347C43.0702 26.1937 42.9601 26.1723 42.8447 26.1722ZM1.75488 27.4408H2.97754V25.6625H3.28516V27.7484H1.26855C1.10058 27.7484 0.939046 27.7279 0.785156 27.6869L0.786133 27.6859C0.63217 27.6461 0.49735 27.583 0.381836 27.4984C0.266389 27.4138 0.173821 27.3069 0.104492 27.1761C0.0351942 27.0453 6.05573e-05 26.8896 0 26.7074C0 26.5585 0.0295633 26.4207 0.0898438 26.2924C0.150211 26.1639 0.235243 26.0531 0.345703 25.9594C0.456136 25.8669 0.58946 25.7932 0.746094 25.7406C0.902671 25.688 1.07607 25.6625 1.26855 25.6625H1.75488V27.4408ZM4.62695 25.6644C4.77317 25.6645 4.89669 25.6859 4.99805 25.7308C5.09928 25.7757 5.19041 25.8423 5.27246 25.932C5.33917 26.0064 5.38781 26.0954 5.41992 26.2006C5.4533 26.3058 5.46873 26.4178 5.46875 26.5385V27.7484H3.71875V27.4418H5.16211V26.5502C5.16211 26.4618 5.15334 26.3848 5.13672 26.3207C5.12003 26.2565 5.09049 26.1969 5.04688 26.1429C5.00326 26.0916 4.94755 26.051 4.88086 26.0189C4.8141 25.9881 4.74341 25.9711 4.66895 25.9711H4.39941V25.6644H4.62695ZM17.4873 27.7474H17.1787V24.9906H17.4873V27.7474ZM20.7617 27.4408H21.9854V25.6625H22.2939V27.4408H23.4561V25.6625H23.7646V27.7474H20.2783C20.1089 27.7474 19.947 27.727 19.793 27.6859C19.639 27.6461 19.5042 27.583 19.3887 27.4984C19.2732 27.4138 19.1807 27.3069 19.1113 27.1761C19.042 27.0453 19.0069 26.8896 19.0068 26.7074C19.0068 26.5585 19.0364 26.4207 19.0967 26.2924C19.157 26.1639 19.2421 26.0531 19.3525 25.9594C19.463 25.8669 19.5963 25.7932 19.7529 25.7406C19.9096 25.6879 20.0847 25.6625 20.2773 25.6625H20.7617V27.4408ZM30.1572 27.7474H29.8486V24.9906H30.1572V27.7474ZM46.4443 27.7474H46.1367V24.9906H46.4443V27.7474ZM20.1514 25.9711C20.046 25.9711 19.943 25.9872 19.8428 26.0219C19.7428 26.0565 19.6544 26.1069 19.5762 26.1722C19.4978 26.2377 19.4342 26.3154 19.3867 26.4066C19.3393 26.4977 19.3154 26.5929 19.3154 26.7084C19.3155 26.8239 19.3372 26.9268 19.3809 27.0179C19.4245 27.1077 19.4839 27.1846 19.5596 27.2474C19.6353 27.3103 19.7238 27.3586 19.8252 27.392H19.8262C19.9276 27.4254 20.0358 27.4418 20.1514 27.4418H20.4561V25.9711H20.1514ZM1.14355 25.9701C1.03828 25.9701 0.935104 25.9862 0.834961 26.0209C0.734776 26.0556 0.645732 26.1058 0.567383 26.1713C0.489206 26.2367 0.426375 26.3137 0.378906 26.4047C0.331383 26.4959 0.306641 26.5969 0.306641 26.7074H0.308594C0.308654 26.8227 0.330504 26.925 0.374023 27.016C0.417694 27.1059 0.476954 27.1835 0.552734 27.2465C0.628449 27.3093 0.717024 27.3567 0.818359 27.39C0.919798 27.4234 1.028 27.4408 1.14355 27.4408H1.44727V25.9701H1.14355ZM7.10449 25.975C6.9966 25.975 6.89217 25.9927 6.79199 26.0287C6.69181 26.0647 6.60276 26.1145 6.52441 26.1801C6.44617 26.2455 6.38343 26.324 6.33594 26.4164C6.28841 26.5089 6.26562 26.6058 6.26562 26.7201C6.26567 26.8343 6.28743 26.9369 6.33105 27.0267C6.37465 27.1152 6.43486 27.1907 6.51172 27.2523C6.58878 27.314 6.67783 27.3608 6.7793 27.3929C6.88072 27.425 6.98896 27.4408 7.10449 27.4408H7.41602V25.975H7.10449ZM9.38672 25.974C9.25057 25.974 9.12068 25.9971 8.99609 26.0433C8.87162 26.0883 8.75088 26.161 8.63281 26.2611L9.11328 27.4408H9.66504L10.1455 26.2611C10.0505 26.179 9.93487 26.1112 9.79883 26.056C9.66274 26.0008 9.52281 25.974 9.38672 25.974ZM26.7354 25.974C26.5992 25.974 26.4693 25.9971 26.3447 26.0433C26.2202 26.0883 26.0995 26.161 25.9814 26.2611H25.9824L26.4639 27.4408H27.0137L27.4941 26.2611C27.3991 26.179 27.2835 26.1112 27.1475 26.056C27.0114 26.0008 26.8714 25.974 26.7354 25.974ZM32.8203 25.9701C32.7152 25.9701 32.6127 25.9863 32.5127 26.0209C32.4125 26.0556 32.3235 26.1058 32.2451 26.1713C32.1669 26.2367 32.1041 26.3137 32.0566 26.4047C32.0091 26.4959 31.9863 26.5918 31.9863 26.7074C31.9864 26.8227 32.0082 26.925 32.0518 27.016C32.0954 27.1058 32.1538 27.1836 32.2295 27.2465C32.3053 27.3094 32.3946 27.3566 32.4961 27.39C32.5974 27.4233 32.705 27.4408 32.8203 27.4408H33.125V25.9701H32.8203ZM1.21387 25.307H0.897461V24.9906H1.21387V25.307ZM1.75293 25.307H1.4375V24.9906H1.75293V25.307ZM20.2217 25.307H19.9062V24.9906H20.2217V25.307ZM20.7617 25.307H20.4453V24.9906H20.7617V25.307ZM32.8916 25.307H32.5752V24.9906H32.8916V25.307ZM33.4307 25.307H33.1152V24.9906H33.4307V25.307Z" fill="white"/>
</svg>
